{"glyphs":{"\r":{"ha":708,"x_min":0,"x_max":0,"o":""}," ":{"ha":361,"x_min":0,"x_max":0,"o":""},"ก":{"ha":888,"x_min":90,"x_max":777,"o":"m 113 0 l 113 267 q 157 380 113 342 q 300 432 201 418 q 202 478 268 456 q 90 500 137 500 q 183 707 96 637 q 432 778 269 778 q 691 704 606 778 q 777 472 777 629 l 777 139 l 646 0 l 583 0 l 583 475 q 547 647 583 591 q 435 703 511 703 q 286 534 298 703 q 378 488 327 521 q 446 431 430 454 l 446 414 q 335 375 363 407 q 306 264 306 344 l 306 0 l 113 0 z "},"ข":{"ha":1019,"x_min":40,"x_max":908,"o":"m 519 72 l 571 72 q 682 112 648 72 q 715 245 715 151 l 715 625 l 846 764 l 908 764 l 908 248 q 841 64 908 128 q 647 0 773 0 l 232 0 l 232 72 l 326 72 l 326 304 q 464 555 326 505 q 421 666 463 629 q 306 703 379 703 q 180 665 229 703 q 123 566 131 627 q 207 603 153 603 q 290 570 259 603 q 321 482 321 537 q 285 391 321 425 q 191 357 249 357 q 79 399 119 357 q 40 522 40 442 q 119 709 40 640 q 338 778 197 778 q 562 714 477 778 q 659 536 646 651 q 550 463 581 511 q 519 311 519 414 l 519 72 m 245 481 q 230 522 245 507 q 189 538 214 538 q 148 522 161 538 q 134 481 134 507 q 148 438 134 453 q 189 422 163 422 q 230 438 215 422 q 245 481 245 453 z "},"ฃ":{"ha":1019,"x_min":40,"x_max":908,"o":"m 464 555 q 452 643 463 609 q 415 689 441 677 l 330 621 l 237 699 q 162 651 193 687 q 123 566 131 615 q 207 603 153 603 q 290 570 259 603 q 321 482 321 537 q 285 391 321 425 q 191 357 249 357 q 81 402 122 357 q 40 522 40 448 q 100 698 40 626 q 253 778 159 770 l 330 710 l 408 778 q 581 713 517 774 q 659 536 645 652 q 550 463 581 511 q 519 311 519 414 l 519 72 l 571 72 q 682 112 648 72 q 715 245 715 151 l 715 625 l 846 764 l 908 764 l 908 248 q 841 64 908 128 q 647 0 773 0 l 232 0 l 232 72 l 326 72 l 326 304 q 360 471 326 411 q 464 555 393 532 m 245 481 q 230 522 245 507 q 189 538 214 538 q 148 522 161 538 q 134 481 134 507 q 148 438 134 453 q 189 422 163 422 q 230 438 215 422 q 245 481 245 453 z "},"ค":{"ha":933,"x_min":83,"x_max":822,"o":"m 517 414 q 501 456 517 441 q 460 471 486 471 q 419 456 436 471 q 403 414 403 441 q 419 372 403 388 q 460 357 436 357 q 501 372 486 357 q 517 414 517 388 m 298 318 q 352 483 313 430 q 461 536 391 536 q 558 504 524 536 q 591 414 591 471 q 558 323 591 355 q 461 292 525 292 q 408 302 431 292 q 372 329 385 313 q 334 39 334 255 l 334 0 l 140 0 l 140 81 q 112 318 140 210 q 90 418 96 381 q 83 494 83 454 q 185 700 83 623 q 460 778 286 778 q 667 746 588 778 q 784 650 747 713 q 822 472 822 586 l 822 139 l 692 0 l 629 0 l 629 472 q 586 646 629 589 q 454 703 543 703 q 322 650 367 703 q 277 498 277 597 q 291 357 277 426 l 298 318 z "},"ฅ":{"ha":933,"x_min":83,"x_max":822,"o":"m 629 479 q 611 600 629 553 q 550 672 592 646 l 452 587 l 351 673 q 294 608 313 648 q 275 505 275 568 q 283 401 275 446 q 298 318 291 357 q 461 536 323 536 q 558 504 524 536 q 591 414 591 471 q 558 323 591 355 q 461 292 525 292 q 408 302 431 292 q 372 329 385 313 q 346 213 358 302 q 334 39 334 123 l 334 0 l 140 0 l 140 81 q 112 322 140 209 q 89 426 95 389 q 83 501 83 464 q 154 681 83 608 q 351 778 225 755 l 452 692 l 551 778 q 754 687 687 760 q 822 479 822 614 l 822 139 l 692 0 l 629 0 l 629 479 m 517 414 q 501 456 517 441 q 460 471 486 471 q 419 456 436 471 q 403 414 403 441 q 419 372 403 388 q 460 357 436 357 q 501 372 486 357 q 517 414 517 388 z "},"ฆ":{"ha":1040,"x_min":40,"x_max":922,"o":"m 330 621 l 237 699 q 162 651 193 687 q 123 566 131 615 q 207 603 153 603 q 290 570 259 603 q 321 482 321 537 q 285 391 321 425 q 191 357 249 357 q 81 402 122 357 q 40 522 40 448 q 100 698 40 626 q 253 778 159 770 l 330 710 l 408 778 q 581 713 517 774 q 659 536 645 652 q 562 473 591 516 q 533 339 533 431 l 533 297 q 638 253 585 286 q 729 174 690 220 l 729 625 l 860 764 l 922 764 l 922 0 l 743 0 q 647 141 703 84 q 533 214 590 199 l 533 189 q 484 37 533 87 q 330 -14 435 -14 q 203 23 248 -14 q 158 129 158 60 q 207 241 158 195 q 340 298 255 286 l 340 332 q 370 481 340 428 q 464 555 400 534 q 452 643 463 609 q 415 689 441 677 l 330 621 m 236 126 q 252 81 236 97 q 289 65 267 65 q 327 82 313 65 q 340 131 340 98 l 340 218 q 236 126 236 201 m 240 481 q 226 518 240 504 q 189 532 212 532 q 152 518 165 532 q 139 481 139 504 q 152 443 139 457 q 189 428 165 428 q 227 443 213 428 q 240 481 240 457 z "},"ง":{"ha":753,"x_min":33,"x_max":642,"o":"m 642 227 q 584 44 642 102 q 404 -14 527 -14 q 236 27 293 -14 q 151 171 178 68 l 119 290 q 87 367 105 346 q 33 389 70 389 l 33 464 q 175 448 123 464 q 257 395 227 432 q 309 279 287 358 l 340 160 q 359 101 350 123 q 379 71 369 80 q 407 61 389 61 q 449 136 449 61 l 449 518 q 357 553 391 519 q 322 643 322 586 q 361 740 322 703 q 467 777 401 777 q 642 587 642 777 l 642 227 m 403 647 q 419 607 403 622 q 461 591 435 591 q 502 607 485 591 q 518 647 518 622 q 502 689 518 673 q 461 704 485 704 q 419 689 435 704 q 403 647 403 673 z "},"จ":{"ha":864,"x_min":71,"x_max":753,"o":"m 239 235 q 135 267 174 235 q 97 359 97 300 q 136 456 97 420 q 241 493 176 493 q 349 454 311 493 q 410 326 388 415 l 452 160 q 469 102 460 123 q 488 71 478 81 q 518 61 498 61 q 559 136 559 61 l 559 439 q 541 590 559 534 q 484 672 522 647 q 375 697 446 697 q 251 679 315 697 q 111 614 188 661 l 71 684 q 418 778 225 778 q 666 699 578 778 q 753 464 753 620 l 753 227 q 695 44 753 102 q 515 -14 638 -14 q 347 27 404 -14 q 262 171 290 68 l 244 235 l 239 235 m 178 364 q 194 323 178 338 q 236 309 210 309 q 276 323 260 309 q 293 364 293 338 q 276 406 293 390 q 236 421 260 421 q 194 406 210 421 q 178 364 178 390 z "},"ฉ":{"ha":966,"x_min":64,"x_max":936,"o":"m 859 126 q 754 218 859 200 l 754 131 q 768 82 754 98 q 806 65 782 65 q 843 81 827 65 q 859 126 859 97 m 383 176 q 469 253 421 221 q 561 297 516 286 l 561 464 q 520 643 561 588 q 380 697 479 697 q 261 679 321 697 q 122 614 201 661 l 82 684 q 424 778 233 778 q 669 700 583 778 q 754 478 754 622 l 754 298 q 888 241 840 286 q 936 129 936 195 q 891 23 936 60 q 764 -14 846 -14 q 610 36 659 -14 q 561 189 561 86 l 561 214 q 370 0 454 186 l 191 0 l 191 281 q 98 315 133 282 q 64 406 64 349 q 103 503 64 466 q 208 539 142 539 q 383 350 383 539 l 383 176 m 144 410 q 161 369 144 385 q 203 354 177 354 q 243 369 227 354 q 260 410 260 385 q 243 451 260 435 q 203 467 227 467 q 161 451 177 467 q 144 410 144 435 z "},"ช":{"ha":1031,"x_min":40,"x_max":1044,"o":"m 245 481 q 230 523 245 507 q 189 539 214 539 q 148 523 161 539 q 134 481 134 507 q 148 438 134 453 q 189 422 163 422 q 230 438 215 422 q 245 481 245 453 m 722 424 q 659 550 722 534 l 659 593 q 738 630 707 601 q 800 722 770 660 l 847 818 l 1044 818 l 991 715 q 923 617 956 647 q 833 571 890 587 q 895 526 874 557 q 916 454 916 495 l 916 248 q 848 64 916 128 q 654 0 781 0 l 232 0 l 232 72 l 340 72 l 340 318 q 359 481 340 425 q 425 562 378 538 q 285 703 422 703 q 175 666 218 703 q 123 566 132 629 q 207 603 153 603 q 290 570 259 603 q 321 482 321 537 q 285 391 321 425 q 191 357 249 357 q 79 399 119 357 q 40 522 40 442 q 115 710 40 642 q 319 778 189 778 q 532 720 454 778 q 619 550 609 661 q 564 517 581 538 q 540 455 547 495 q 533 325 533 416 l 533 72 l 578 72 q 689 112 656 72 q 722 245 722 152 l 722 424 z "},"ซ":{"ha":1031,"x_min":40,"x_max":1044,"o":"m 533 72 l 578 72 q 689 112 656 72 q 722 245 722 152 l 722 424 q 659 550 722 534 l 659 593 q 738 630 707 601 q 800 722 770 660 l 847 818 l 1044 818 l 991 715 q 923 617 956 647 q 833 571 890 587 q 895 526 874 557 q 916 454 916 495 l 916 248 q 848 64 916 128 q 654 0 781 0 l 232 0 l 232 72 l 340 72 l 340 343 q 424 562 340 516 q 406 647 422 616 q 367 689 390 677 l 297 624 l 210 699 q 123 566 136 677 q 207 603 153 603 q 290 570 259 603 q 321 482 321 537 q 285 391 321 425 q 191 357 249 357 q 81 402 122 357 q 40 522 40 448 q 91 699 40 629 q 225 778 141 770 l 297 714 l 371 778 q 544 715 481 774 q 618 550 608 656 q 552 477 572 527 q 533 325 533 427 l 533 72 m 240 481 q 226 518 240 504 q 189 532 212 532 q 152 518 165 532 q 139 481 139 504 q 152 443 139 457 q 189 428 165 428 q 227 443 213 428 q 240 481 240 457 z "},"ฌ":{"ha":1352,"x_min":90,"x_max":1234,"o":"m 336 117 q 320 157 336 142 q 278 172 304 172 q 237 157 254 172 q 221 117 221 142 q 237 75 221 91 q 278 60 254 60 q 320 75 304 60 q 336 117 336 91 m 547 126 q 563 81 547 97 q 600 65 578 65 q 638 82 624 65 q 652 131 652 98 l 652 218 q 547 126 547 201 m 1054 0 q 959 140 1017 81 q 844 214 902 199 l 844 189 q 795 37 844 87 q 642 -14 746 -14 q 514 23 559 -14 q 469 129 469 60 q 518 241 469 195 q 652 298 566 286 l 652 521 q 609 659 652 615 q 468 703 567 703 q 342 671 390 703 q 286 574 294 640 q 418 469 397 499 l 418 453 q 339 435 366 449 q 301 394 313 421 q 290 302 290 367 l 290 245 q 384 209 351 242 q 416 121 416 176 q 376 24 416 60 q 272 -12 336 -12 q 97 176 97 -12 l 97 306 q 272 471 97 446 q 177 517 239 496 q 90 539 115 539 q 193 717 96 656 q 468 778 289 778 q 748 709 652 778 q 844 501 844 640 l 844 297 q 947 254 894 286 q 1040 174 1001 222 l 1040 625 l 1171 764 l 1234 764 l 1234 0 l 1054 0 z "},"ญ":{"ha":1234,"x_min":90,"x_max":1122,"o":"m 113 306 q 161 415 113 372 q 300 471 209 458 q 198 518 264 498 q 90 539 132 539 q 177 717 95 656 q 412 778 259 778 q 651 709 569 778 q 733 501 733 640 l 733 72 l 785 72 q 896 112 863 72 q 929 245 929 152 l 929 625 l 1060 764 l 1122 764 l 1122 248 q 1055 64 1122 128 q 861 0 987 0 l 541 0 l 541 521 q 511 659 541 615 q 412 703 481 703 q 320 671 349 703 q 286 574 291 640 q 376 528 323 562 q 446 469 429 494 l 446 453 q 336 416 366 447 q 306 302 306 385 l 306 245 q 399 209 366 242 q 432 121 432 176 q 392 24 432 60 q 288 -12 352 -12 q 113 176 113 -12 l 113 306 m 351 117 q 335 157 351 142 q 293 172 319 172 q 253 157 269 172 q 236 117 236 142 q 253 75 236 91 q 293 60 269 60 q 335 75 319 60 q 351 117 351 91 m 745 -333 q 602 -294 652 -333 q 551 -190 551 -256 q 589 -98 551 -131 q 686 -64 626 -64 q 783 -96 746 -64 q 819 -181 819 -128 q 812 -223 819 -202 q 795 -256 804 -245 q 899 -190 860 -239 q 956 -54 939 -141 l 1108 -76 q 984 -263 1080 -194 q 745 -333 888 -333 m 626 -190 q 642 -233 626 -217 q 686 -250 659 -250 q 728 -233 711 -250 q 744 -190 744 -217 q 728 -146 744 -161 q 686 -130 711 -130 q 642 -146 659 -130 q 626 -190 626 -161 z "},"ฎ":{"ha":932,"x_min":31,"x_max":821,"o":"m 329 -248 q 415 -167 385 -248 q 329 -143 366 -143 q 271 -195 271 -143 q 288 -233 271 -218 q 329 -248 305 -248 m 157 288 q 201 400 157 362 q 345 453 245 439 q 246 499 311 477 q 135 521 182 521 q 228 713 141 648 q 476 778 315 778 q 735 704 650 778 q 821 472 821 629 l 821 -214 l 690 -353 l 628 -353 q 501 -222 578 -286 q 334 -317 427 -317 q 233 -284 270 -317 q 196 -197 196 -252 q 232 -107 196 -140 q 334 -74 267 -74 q 436 -96 381 -74 q 447 -12 444 -54 l 586 -53 q 543 -155 567 -109 q 628 -220 589 -186 l 628 475 q 591 647 628 592 q 479 703 555 703 q 330 555 342 703 q 423 508 372 542 q 490 452 475 475 l 490 435 q 378 396 407 428 q 350 285 350 363 l 350 175 q 175 -14 350 -14 q 70 22 110 -14 q 31 119 31 58 q 63 208 31 175 q 157 244 96 241 l 157 288 m 111 115 q 127 74 111 90 q 170 58 144 58 q 210 74 193 58 q 227 115 227 90 q 210 156 227 140 q 170 171 193 171 q 127 156 144 171 q 111 115 111 140 z "},"ฏ":{"ha":932,"x_min":31,"x_max":821,"o":"m 174 -157 q 118 -208 118 -157 q 135 -249 118 -237 q 176 -261 153 -261 q 275 -196 231 -261 q 174 -157 223 -157 m 157 302 q 207 405 157 366 q 345 453 256 444 q 246 499 311 477 q 135 521 182 521 q 228 713 141 648 q 476 778 315 778 q 735 704 650 778 q 821 472 821 629 l 821 -214 l 690 -353 l 628 -353 q 532 -235 575 -276 q 486 -295 519 -260 q 425 -351 454 -330 q 346 -258 386 -301 q 180 -330 262 -330 q 80 -298 117 -330 q 43 -211 43 -265 q 78 -122 43 -156 q 171 -87 113 -87 q 311 -127 236 -87 q 346 1 334 -73 l 485 -39 q 404 -195 456 -125 l 444 -235 q 514 -125 487 -187 q 628 -227 570 -161 l 628 475 q 591 647 628 592 q 479 703 555 703 q 330 555 342 703 q 423 508 372 542 q 490 452 475 475 l 490 435 q 378 396 407 428 q 350 285 350 363 l 350 175 q 175 -14 350 -14 q 70 22 110 -14 q 31 119 31 58 q 63 208 31 175 q 157 244 96 241 l 157 302 m 111 115 q 127 74 111 90 q 170 58 144 58 q 210 74 193 58 q 227 115 227 90 q 210 156 227 140 q 170 171 193 171 q 127 156 144 171 q 111 115 111 140 z "},"ฐ":{"ha":835,"x_min":57,"x_max":785,"o":"m 261 126 q 218 119 242 119 q 121 154 158 119 q 85 245 85 189 q 124 341 85 305 q 227 378 163 378 q 356 331 307 378 q 433 182 406 284 q 464 101 449 126 q 503 75 479 75 q 545 150 545 75 l 545 304 q 501 416 545 382 q 358 450 457 450 l 92 450 l 92 525 q 148 708 92 645 q 329 771 204 771 q 457 760 359 771 q 603 747 555 747 q 677 759 644 747 q 730 793 711 771 l 785 753 q 578 606 700 606 q 452 618 545 606 q 330 629 359 629 q 213 606 252 629 q 167 525 173 582 l 450 525 q 664 472 591 525 q 737 311 737 418 l 737 240 q 680 58 737 117 q 500 0 623 0 q 339 28 391 0 q 261 126 286 56 m 165 249 q 182 208 165 223 q 224 193 198 193 q 264 208 248 193 q 281 249 281 223 q 264 290 281 275 q 224 306 248 306 q 182 290 198 306 q 165 249 165 275 m 684 -353 l 607 -353 q 521 -289 589 -333 q 432 -351 465 -333 q 346 -253 377 -281 q 184 -330 264 -330 q 93 -297 129 -330 q 57 -211 57 -263 q 91 -122 57 -157 q 180 -87 125 -87 q 304 -127 235 -87 q 335 -25 323 -86 l 468 -65 q 393 -197 445 -127 l 406 -210 l 444 -256 q 514 -205 498 -220 q 578 -243 532 -213 q 648 -296 624 -274 l 648 -218 l 642 -220 l 636 -220 q 562 -194 590 -220 q 533 -125 533 -169 q 564 -55 533 -83 q 648 -28 594 -28 q 735 -59 704 -28 q 766 -146 766 -90 l 766 -269 l 684 -353 m 650 -86 q 615 -98 628 -86 q 603 -125 603 -109 q 615 -152 603 -140 q 650 -164 628 -164 q 684 -152 671 -164 q 697 -125 697 -140 q 684 -98 697 -109 q 650 -86 671 -86 m 182 -157 q 146 -170 159 -157 q 132 -208 132 -184 q 148 -247 132 -232 q 184 -261 163 -261 q 271 -196 234 -261 q 182 -157 227 -157 z "},"ฑ":{"ha":1152,"x_min":40,"x_max":1040,"o":"m 340 343 q 424 562 340 516 q 406 647 422 616 q 367 689 390 677 l 297 624 l 210 699 q 123 566 136 677 q 207 603 153 603 q 290 570 259 603 q 321 482 321 537 q 285 391 321 425 q 191 357 249 357 q 81 402 122 357 q 40 522 40 448 q 91 699 40 629 q 225 778 141 770 l 297 714 l 371 778 q 544 715 481 774 q 618 550 608 656 q 552 477 572 527 q 533 325 533 427 l 533 214 l 679 616 q 758 741 711 705 q 882 778 805 778 q 1003 730 966 778 q 1040 572 1040 683 l 1040 139 l 909 0 l 847 0 l 847 614 q 840 664 847 650 q 819 677 833 677 q 791 658 804 677 q 764 597 779 638 l 549 0 l 340 0 l 340 343 m 240 481 q 226 518 240 504 q 189 532 212 532 q 152 518 165 532 q 139 481 139 504 q 152 443 139 457 q 189 428 165 428 q 227 443 213 428 q 240 481 240 457 z "},"ฒ":{"ha":1358,"x_min":83,"x_max":1240,"o":"m 399 433 q 412 391 399 408 q 447 375 426 375 q 484 391 471 375 q 496 433 496 408 q 483 476 496 460 q 447 492 471 492 q 412 476 425 492 q 399 433 399 460 m 867 189 q 818 37 867 87 q 664 -14 768 -14 q 536 23 581 -14 q 492 129 492 60 q 539 241 492 195 q 673 298 587 286 l 673 472 q 651 596 673 547 q 575 671 628 645 l 475 595 l 372 671 q 278 498 278 614 q 302 319 278 405 q 334 135 328 226 q 408 222 375 178 q 452 313 440 266 l 446 311 l 437 311 q 354 344 385 311 q 323 432 323 377 q 357 522 323 488 q 447 557 390 557 q 538 524 505 557 q 571 432 571 492 q 498 224 571 339 q 300 0 426 110 l 142 0 q 113 267 142 129 q 83 494 83 404 q 158 678 83 602 q 363 778 233 755 l 475 689 l 585 778 q 797 688 727 761 q 867 472 867 616 l 867 297 q 968 250 917 286 q 1047 174 1020 215 l 1047 625 l 1178 764 l 1240 764 l 1240 0 l 1061 0 q 973 141 1025 83 q 867 214 921 199 l 867 189 m 570 126 q 585 81 570 97 q 623 65 600 65 q 660 82 646 65 q 673 131 673 98 l 673 218 q 570 126 570 200 z "},"ณ":{"ha":1305,"x_min":90,"x_max":1275,"o":"m 1197 126 q 1093 218 1197 200 l 1093 131 q 1145 65 1093 65 q 1182 81 1166 65 q 1197 126 1197 97 m 306 244 q 399 208 366 241 q 432 119 432 175 q 392 22 432 58 q 288 -14 352 -14 q 113 175 113 -14 l 113 267 q 157 380 113 342 q 300 432 201 418 q 202 478 268 456 q 90 500 137 500 q 177 708 96 637 q 406 778 257 778 q 641 709 559 778 q 722 503 722 640 l 722 176 q 808 253 760 221 q 900 297 855 286 l 900 625 l 1031 764 l 1093 764 l 1093 298 q 1227 241 1179 286 q 1275 129 1275 195 q 1230 23 1275 60 q 1103 -14 1185 -14 q 949 37 998 -14 q 900 189 900 87 l 900 214 q 708 0 792 186 l 529 0 l 529 503 q 498 652 529 601 q 407 703 467 703 q 286 534 296 703 q 378 488 327 521 q 446 431 430 454 l 446 414 q 341 380 377 408 q 306 302 306 351 l 306 244 m 351 115 q 335 156 351 140 q 293 171 319 171 q 253 156 269 171 q 236 115 236 140 q 253 74 236 90 q 293 58 269 58 q 335 74 319 58 q 351 115 351 90 z "},"ด":{"ha":961,"x_min":83,"x_max":850,"o":"m 465 277 l 458 275 l 450 275 q 367 308 398 275 q 336 396 336 341 q 372 486 336 452 q 467 521 408 521 q 563 483 526 521 q 599 380 599 446 q 536 196 599 282 q 313 0 473 110 l 140 0 q 112 267 140 132 q 90 392 96 342 q 83 494 83 442 q 189 700 83 623 q 473 778 294 778 q 690 745 607 778 q 811 648 772 713 q 850 472 850 584 l 850 139 l 720 0 l 657 0 l 657 472 q 610 645 657 588 q 468 703 564 703 q 325 650 374 703 q 277 498 277 597 q 301 300 277 396 q 332 107 326 199 q 425 197 393 151 q 465 277 457 242 m 411 397 q 427 356 411 372 q 468 340 443 340 q 509 356 495 340 q 524 397 524 372 q 509 440 524 425 q 468 456 494 456 q 427 440 442 456 q 411 397 411 425 z "},"ต":{"ha":961,"x_min":83,"x_max":851,"o":"m 412 397 q 428 356 412 372 q 469 340 444 340 q 511 356 496 340 q 525 397 525 372 q 510 440 525 425 q 469 456 495 456 q 428 440 444 456 q 412 397 412 425 m 142 0 q 113 267 142 129 q 83 494 83 404 q 164 677 83 600 q 375 778 244 754 l 475 692 l 575 778 q 782 686 713 760 q 851 472 851 612 l 851 139 l 721 0 l 659 0 l 659 472 q 574 672 659 623 l 475 587 l 375 673 q 306 605 333 648 q 278 498 278 561 q 302 300 278 396 q 334 107 328 195 q 426 197 394 151 q 467 277 458 242 l 459 275 l 452 275 q 369 308 399 275 q 338 396 338 341 q 373 486 338 452 q 468 521 409 521 q 564 483 528 521 q 600 380 600 446 q 537 196 600 282 q 314 0 474 110 l 142 0 z "},"ถ":{"ha":888,"x_min":90,"x_max":777,"o":"m 306 244 q 399 208 366 241 q 432 119 432 175 q 392 22 432 58 q 288 -14 352 -14 q 113 175 113 -14 l 113 267 q 157 380 113 342 q 300 432 201 418 q 202 478 268 456 q 90 500 137 500 q 183 707 96 637 q 432 778 269 778 q 691 704 606 778 q 777 472 777 629 l 777 139 l 646 0 l 583 0 l 583 475 q 547 647 583 591 q 435 703 511 703 q 286 534 298 703 q 378 488 327 521 q 446 431 430 454 l 446 414 q 341 380 377 408 q 306 302 306 351 l 306 244 m 351 115 q 335 156 351 140 q 293 171 319 171 q 253 156 269 171 q 236 115 236 140 q 253 74 236 90 q 293 58 269 58 q 335 74 319 58 q 351 115 351 90 z "},"ท":{"ha":968,"x_min":31,"x_max":857,"o":"m 696 778 q 819 730 781 778 q 857 572 857 682 l 857 139 l 726 0 l 664 0 l 664 614 q 659 663 664 648 q 637 677 653 677 q 609 652 623 677 q 576 571 596 627 l 376 0 l 157 0 l 157 517 q 65 552 100 518 q 31 642 31 585 q 70 739 31 702 q 175 775 109 775 q 350 586 350 775 l 350 183 l 489 582 q 573 735 527 693 q 696 778 620 778 m 111 646 q 127 605 111 621 q 170 590 144 590 q 210 605 193 590 q 227 646 227 621 q 210 687 227 672 q 170 703 193 703 q 127 687 144 703 q 111 646 111 672 z "},"ธ":{"ha":836,"x_min":94,"x_max":768,"o":"m 107 240 l 237 379 l 300 379 l 300 75 l 361 75 q 506 114 465 75 q 547 239 547 153 l 547 286 q 505 412 547 374 q 361 450 462 450 l 94 450 l 94 525 q 151 708 94 645 q 332 771 207 771 q 450 760 362 771 q 586 747 537 747 q 661 759 627 747 q 714 793 694 771 l 768 753 q 561 606 684 606 q 445 618 528 606 q 334 629 361 629 q 215 606 255 629 q 170 525 176 582 l 453 525 q 666 471 592 525 q 741 311 741 418 l 741 240 q 683 58 741 117 q 503 0 625 0 l 107 0 l 107 240 z "},"น":{"ha":947,"x_min":31,"x_max":917,"o":"m 734 298 q 868 241 820 286 q 917 129 917 195 q 872 23 917 60 q 745 -14 827 -14 q 591 37 640 -14 q 542 189 542 87 l 542 214 q 350 0 434 186 l 157 0 l 157 517 q 65 552 100 518 q 31 642 31 585 q 70 739 31 702 q 175 775 109 775 q 350 586 350 775 l 350 153 q 438 244 381 201 q 542 298 495 287 l 542 625 l 672 764 l 734 764 l 734 298 m 111 646 q 127 605 111 621 q 170 590 144 590 q 210 605 193 590 q 227 646 227 621 q 210 687 227 672 q 170 703 193 703 q 127 687 144 703 q 111 646 111 672 m 839 126 q 734 218 839 201 l 734 131 q 748 82 734 98 q 786 65 762 65 q 823 81 808 65 q 839 126 839 97 z "},"บ":{"ha":892,"x_min":31,"x_max":781,"o":"m 157 517 q 65 552 100 518 q 31 642 31 585 q 70 739 31 702 q 175 775 109 775 q 350 586 350 775 l 350 72 l 443 72 q 554 112 521 72 q 587 245 587 152 l 587 625 l 718 764 l 781 764 l 781 248 q 713 64 781 128 q 519 0 646 0 l 62 0 l 62 72 l 157 72 l 157 517 m 111 646 q 127 605 111 621 q 170 590 144 590 q 210 605 193 590 q 227 646 227 621 q 210 687 227 672 q 170 703 193 703 q 127 687 144 703 q 111 646 111 672 z "},"ป":{"ha":892,"x_min":31,"x_max":781,"o":"m 157 517 q 65 552 100 518 q 31 642 31 585 q 70 739 31 702 q 175 775 109 775 q 350 586 350 775 l 350 72 l 443 72 q 554 112 521 72 q 587 245 587 152 l 587 1007 l 718 1146 l 781 1146 l 781 248 q 713 64 781 128 q 519 0 646 0 l 62 0 l 62 72 l 157 72 l 157 517 m 111 646 q 127 605 111 621 q 170 590 144 590 q 210 605 193 590 q 227 646 227 621 q 210 687 227 672 q 170 703 193 703 q 127 687 144 703 q 111 646 111 672 z "},"ผ":{"ha":965,"x_min":118,"x_max":854,"o":"m 311 196 q 345 261 326 231 q 384 323 363 291 q 422 392 404 355 q 453 481 440 430 l 519 481 q 549 394 531 432 q 588 325 568 357 q 628 262 608 292 q 661 196 647 231 l 661 625 l 791 764 l 854 764 l 854 139 l 724 0 l 661 0 q 627 109 649 62 q 578 196 604 156 q 528 275 553 237 q 486 357 503 313 q 432 254 468 308 q 370 155 387 187 q 337 84 352 122 q 311 0 322 45 l 118 0 l 118 586 q 293 775 118 775 q 398 739 359 775 q 437 642 437 703 q 403 551 437 585 q 311 517 368 518 l 311 196 m 357 646 q 341 687 357 672 q 298 703 325 703 q 258 687 275 703 q 241 646 241 672 q 258 605 241 621 q 298 590 275 590 q 341 605 325 590 q 357 646 357 621 z "},"ฝ":{"ha":965,"x_min":118,"x_max":854,"o":"m 311 196 q 345 261 326 231 q 384 323 363 291 q 422 392 404 355 q 453 481 440 430 l 519 481 q 549 394 531 432 q 588 325 568 357 q 628 262 608 292 q 661 196 647 231 l 661 1007 l 791 1146 l 854 1146 l 854 139 l 724 0 l 661 0 q 627 109 649 62 q 578 196 604 156 q 528 275 553 237 q 486 357 503 313 q 432 254 468 308 q 370 155 387 187 q 337 84 352 122 q 311 0 322 45 l 118 0 l 118 586 q 293 775 118 775 q 398 739 359 775 q 437 642 437 703 q 403 551 437 585 q 311 517 368 518 l 311 196 m 357 646 q 341 687 357 672 q 298 703 325 703 q 258 687 275 703 q 241 646 241 672 q 258 605 241 621 q 298 590 275 590 q 341 605 325 590 q 357 646 357 621 z "},"พ":{"ha":1004,"x_min":31,"x_max":893,"o":"m 157 517 q 65 552 100 518 q 31 642 31 585 q 70 739 31 702 q 175 775 109 775 q 350 586 350 775 l 350 271 l 492 757 l 558 757 l 700 271 l 700 625 l 831 764 l 893 764 l 893 139 l 762 0 l 700 0 l 525 597 l 350 0 l 157 0 l 157 517 m 111 646 q 127 605 111 621 q 170 590 144 590 q 210 605 193 590 q 227 646 227 621 q 210 687 227 672 q 170 703 193 703 q 127 687 144 703 q 111 646 111 672 z "},"ฟ":{"ha":1004,"x_min":31,"x_max":893,"o":"m 157 517 q 65 552 100 518 q 31 642 31 585 q 70 739 31 702 q 175 775 109 775 q 350 586 350 775 l 350 271 l 492 757 l 558 757 l 700 271 l 700 1007 l 831 1146 l 893 1146 l 893 139 l 762 0 l 700 0 l 525 597 l 350 0 l 157 0 l 157 517 m 111 646 q 127 605 111 621 q 170 590 144 590 q 210 605 193 590 q 227 646 227 621 q 210 687 227 672 q 170 703 193 703 q 127 687 144 703 q 111 646 111 672 z "},"ภ":{"ha":932,"x_min":31,"x_max":821,"o":"m 350 175 q 175 -14 350 -14 q 70 22 110 -14 q 31 119 31 58 q 63 208 31 175 q 157 244 96 241 l 157 288 q 345 432 157 405 q 246 478 311 456 q 135 500 182 500 q 227 707 141 636 q 476 778 313 778 q 735 704 650 778 q 821 472 821 629 l 821 139 l 690 0 l 628 0 l 628 475 q 591 647 628 592 q 479 703 555 703 q 330 534 342 703 q 423 487 372 521 q 490 431 475 454 l 490 414 q 379 376 408 407 q 350 264 350 345 l 350 175 m 111 115 q 127 74 111 90 q 170 58 144 58 q 210 74 193 58 q 227 115 227 90 q 210 156 227 140 q 170 171 193 171 q 127 156 144 171 q 111 115 111 140 z "},"ม":{"ha":916,"x_min":40,"x_max":804,"o":"m 415 189 q 366 37 415 87 q 212 -14 317 -14 q 85 23 130 -14 q 40 129 40 60 q 89 241 40 195 q 222 298 137 286 l 222 517 q 130 551 165 518 q 96 642 96 585 q 135 739 96 702 q 240 775 174 775 q 415 586 415 775 l 415 297 q 519 254 466 286 q 611 174 572 222 l 611 625 l 742 764 l 804 764 l 804 0 l 625 0 q 526 149 583 90 q 415 222 468 209 l 415 189 m 176 646 q 193 605 176 621 q 235 590 209 590 q 275 605 258 590 q 292 646 292 621 q 275 687 292 672 q 235 703 258 703 q 193 687 209 703 q 176 646 176 672 m 118 126 q 134 81 118 97 q 171 65 149 65 q 209 82 195 65 q 222 131 222 98 l 222 218 q 118 126 118 201 z "},"ย":{"ha":844,"x_min":83,"x_max":733,"o":"m 268 518 q 295 429 268 458 q 382 396 321 401 l 382 340 q 301 307 326 336 q 277 204 277 277 q 306 91 277 123 q 403 58 335 58 q 509 97 478 58 q 541 232 541 136 l 541 625 l 671 764 l 733 764 l 733 233 q 403 -14 733 -14 q 218 7 288 -14 q 116 70 148 28 q 83 189 83 111 q 243 368 83 346 q 120 434 157 380 q 83 586 83 488 q 130 726 83 677 q 267 775 176 775 q 372 739 332 775 q 411 642 411 703 q 376 551 411 585 q 285 517 342 518 l 277 517 l 268 518 m 330 646 q 314 687 330 672 q 272 703 298 703 q 232 687 248 703 q 215 646 215 672 q 232 605 215 621 q 272 590 248 590 q 314 605 298 590 q 330 646 330 621 z "},"ร":{"ha":728,"x_min":47,"x_max":699,"o":"m 568 175 q 393 -14 568 -14 q 289 22 328 -14 q 249 119 249 58 q 282 208 249 175 q 375 244 315 241 l 375 288 q 334 412 375 374 q 189 450 292 450 l 47 450 l 47 525 q 106 710 47 650 q 285 771 164 771 q 391 760 315 771 q 517 747 468 747 q 591 759 557 747 q 644 793 625 771 l 699 753 q 492 606 614 606 q 387 618 458 606 q 286 629 314 629 q 169 606 209 629 q 122 525 128 582 l 281 525 q 494 471 420 525 q 568 311 568 418 l 568 175 m 329 115 q 345 74 329 90 q 387 58 361 58 q 428 74 411 58 q 444 115 444 90 q 428 156 444 140 q 387 171 411 171 q 345 156 361 171 q 329 115 329 140 z "},"ฤ":{"ha":888,"x_min":90,"x_max":777,"o":"m 306 244 q 399 208 366 241 q 432 119 432 175 q 392 22 432 58 q 288 -14 352 -14 q 113 175 113 -14 l 113 267 q 157 380 113 342 q 300 432 201 418 q 202 478 268 456 q 90 500 137 500 q 183 707 96 637 q 432 778 269 778 q 691 704 606 778 q 777 472 777 629 l 777 -214 l 646 -353 l 583 -353 l 583 475 q 547 647 583 591 q 435 703 511 703 q 286 534 298 703 q 378 488 327 521 q 446 431 430 454 l 446 414 q 341 380 377 408 q 306 302 306 351 l 306 244 m 351 115 q 335 156 351 140 q 293 171 319 171 q 253 156 269 171 q 236 115 236 140 q 253 74 236 90 q 293 58 269 58 q 335 74 319 58 q 351 115 351 90 z "},"ล":{"ha":876,"x_min":83,"x_max":765,"o":"m 275 244 q 370 207 336 241 q 403 119 403 174 q 363 22 403 58 q 258 -14 323 -14 q 83 175 83 -14 l 83 241 q 144 415 83 353 q 318 476 205 476 q 572 317 475 476 l 572 439 q 531 641 572 580 q 390 703 490 703 q 131 619 262 703 l 93 684 q 258 756 174 734 q 433 778 342 778 q 679 699 593 778 q 765 464 765 620 l 765 139 l 635 0 l 572 0 l 572 125 q 480 316 541 244 q 349 387 420 387 q 291 363 307 387 q 275 279 275 340 l 275 244 m 322 115 q 306 156 322 140 q 264 171 290 171 q 223 156 240 171 q 207 115 207 140 q 223 74 207 90 q 264 58 240 58 q 306 74 290 58 q 322 115 322 90 z "},"ฦ":{"ha":932,"x_min":31,"x_max":821,"o":"m 350 175 q 175 -14 350 -14 q 70 22 110 -14 q 31 119 31 58 q 63 208 31 175 q 157 244 96 241 l 157 288 q 345 432 157 405 q 246 478 311 456 q 135 500 182 500 q 227 707 141 636 q 476 778 313 778 q 735 704 650 778 q 821 472 821 629 l 821 -214 l 690 -353 l 628 -353 l 628 475 q 591 647 628 592 q 479 703 555 703 q 330 534 342 703 q 423 487 372 521 q 490 431 475 454 l 490 414 q 379 376 408 407 q 350 264 350 345 l 350 175 m 111 115 q 127 74 111 90 q 170 58 144 58 q 210 74 193 58 q 227 115 227 90 q 210 156 227 140 q 170 171 193 171 q 127 156 144 171 q 111 115 111 140 z "},"ว":{"ha":730,"x_min":0,"x_max":619,"o":"m 427 439 q 411 590 427 534 q 362 673 395 647 q 267 700 329 700 q 162 682 214 700 q 40 616 110 664 l 0 684 q 315 778 142 778 q 540 699 461 778 q 619 464 619 620 l 619 175 q 444 -14 619 -14 q 339 22 379 -14 q 300 119 300 58 q 333 208 300 175 q 427 244 366 241 l 427 439 m 380 115 q 397 74 380 90 q 439 58 413 58 q 479 74 463 58 q 496 115 496 90 q 479 156 496 140 q 439 171 463 171 q 397 156 413 171 q 380 115 380 140 z "},"ศ":{"ha":935,"x_min":83,"x_max":893,"o":"m 629 472 q 625 533 629 505 q 545 486 569 498 q 591 386 591 454 q 558 296 591 328 q 461 264 525 264 q 376 292 407 264 q 347 195 359 259 q 334 39 334 132 l 334 0 l 140 0 l 140 81 q 112 318 140 210 q 90 418 96 381 q 83 494 83 454 q 185 700 83 623 q 460 778 286 778 q 692 734 608 778 q 734 818 717 771 l 893 818 q 779 657 863 742 q 822 472 822 589 l 822 139 l 692 0 l 629 0 l 629 472 m 304 290 q 357 452 317 396 q 461 509 398 509 l 465 509 q 602 621 537 555 q 454 703 562 703 q 321 650 367 703 q 275 498 275 598 q 288 388 275 452 q 304 290 302 312 m 517 386 q 501 428 517 414 q 460 443 486 443 q 419 428 436 443 q 403 386 403 414 q 419 345 403 360 q 460 329 436 329 q 501 345 486 329 q 517 386 517 360 z "},"ษ":{"ha":1055,"x_min":31,"x_max":1089,"o":"m 157 517 q 65 552 100 518 q 31 642 31 585 q 70 739 31 702 q 175 775 109 775 q 350 586 350 775 l 350 72 l 532 72 q 643 112 610 72 q 676 245 676 152 l 676 271 q 572 264 626 264 q 435 302 484 264 q 386 407 386 341 q 421 498 386 465 q 514 532 456 532 q 606 500 572 532 q 640 415 640 468 q 633 373 640 394 q 616 340 625 352 q 676 353 649 345 l 676 625 l 807 764 l 869 764 l 869 456 q 926 520 901 483 q 961 589 951 557 l 1089 522 q 869 323 1014 392 l 869 248 q 802 64 869 128 q 608 0 734 0 l 62 0 l 62 72 l 157 72 l 157 517 m 461 407 q 476 363 461 380 q 514 347 490 347 q 551 363 536 347 q 566 407 566 380 q 551 451 566 435 q 514 467 536 467 q 476 451 490 467 q 461 407 461 435 m 111 646 q 127 605 111 621 q 170 590 144 590 q 210 605 193 590 q 227 646 227 621 q 210 687 227 672 q 170 703 193 703 q 127 687 144 703 q 111 646 111 672 z "},"ส":{"ha":876,"x_min":83,"x_max":836,"o":"m 275 244 q 370 207 336 241 q 403 119 403 174 q 363 22 403 58 q 258 -14 323 -14 q 83 175 83 -14 l 83 241 q 144 415 83 353 q 318 476 205 476 l 346 475 q 542 623 445 523 q 487 681 522 663 q 390 700 452 700 q 270 682 331 700 q 134 616 210 663 l 93 684 q 258 756 174 734 q 433 778 342 778 q 632 732 554 778 q 677 818 662 776 l 836 818 q 718 650 804 736 q 765 464 765 575 l 765 139 l 635 0 l 572 0 l 572 125 q 480 316 541 244 q 349 387 420 387 q 291 363 307 387 q 275 279 275 340 l 275 244 m 567 525 q 431 452 490 475 q 572 317 513 413 l 572 439 q 567 525 572 474 m 322 115 q 306 156 322 140 q 264 171 290 171 q 223 156 240 171 q 207 115 207 140 q 223 74 207 90 q 264 58 240 58 q 306 74 290 58 q 322 115 322 90 z "},"ห":{"ha":920,"x_min":31,"x_max":822,"o":"m 157 517 q 65 552 100 518 q 31 642 31 585 q 70 739 31 702 q 175 775 109 775 q 350 586 350 775 l 350 239 q 574 493 419 373 q 512 561 533 523 q 490 636 490 599 q 531 739 490 701 q 643 777 571 777 q 754 740 714 777 q 794 642 794 703 q 715 501 794 557 q 793 430 764 477 q 822 325 822 382 l 822 139 l 692 0 l 629 0 l 629 359 q 618 431 629 416 q 448 231 522 350 q 350 0 374 113 l 157 0 l 157 517 m 572 636 q 646 550 572 585 q 694 591 675 566 q 713 642 713 616 q 693 688 713 673 q 643 703 673 703 q 592 685 612 703 q 572 636 572 667 m 111 646 q 127 605 111 621 q 170 590 144 590 q 210 605 193 590 q 227 646 227 621 q 210 687 227 672 q 170 703 193 703 q 127 687 144 703 q 111 646 111 672 z "},"ฬ":{"ha":1004,"x_min":31,"x_max":1114,"o":"m 157 517 q 65 552 100 518 q 31 642 31 585 q 70 739 31 702 q 175 775 109 775 q 350 586 350 775 l 350 267 l 492 757 l 558 757 l 700 267 l 700 726 q 599 857 599 762 q 636 949 599 916 q 733 982 673 982 q 830 950 793 982 q 867 865 867 918 q 859 823 867 844 q 843 790 852 802 q 975 993 951 829 l 1114 971 q 1036 814 1093 878 q 893 726 979 750 l 893 139 l 762 0 l 700 0 l 525 597 l 350 0 l 157 0 l 157 517 m 673 857 q 690 813 673 829 q 733 798 706 798 q 775 813 758 798 q 791 857 791 829 q 775 901 791 886 q 733 917 758 917 q 690 901 706 917 q 673 857 673 886 m 111 646 q 127 605 111 621 q 170 590 144 590 q 210 605 193 590 q 227 646 227 621 q 210 687 227 672 q 170 703 193 703 q 127 687 144 703 q 111 646 111 672 z "},"อ":{"ha":872,"x_min":79,"x_max":761,"o":"m 311 237 q 341 100 311 140 q 437 61 371 61 q 538 111 507 61 q 568 277 568 161 l 568 478 q 525 647 568 595 q 383 700 481 700 q 119 616 239 700 l 79 684 q 427 778 234 778 q 674 701 588 778 q 761 484 761 625 l 761 282 q 728 107 761 169 q 625 16 696 45 q 437 -14 555 -14 q 253 14 323 -14 q 151 97 183 42 q 118 253 118 153 l 118 351 q 293 541 118 541 q 398 504 359 541 q 437 407 437 468 q 403 317 437 350 q 311 282 368 283 l 311 237 m 357 411 q 341 452 357 437 q 298 468 325 468 q 258 452 275 468 q 241 411 241 437 q 258 371 241 386 q 298 355 275 355 q 341 371 325 355 q 357 411 357 386 z "},"ฮ":{"ha":911,"x_min":111,"x_max":878,"o":"m 424 585 q 591 640 515 585 q 529 687 576 666 q 433 708 482 708 q 313 647 313 708 q 343 601 313 616 q 424 585 373 585 m 304 207 q 323 128 304 163 q 375 73 341 92 q 456 53 409 53 q 570 98 533 53 q 607 239 607 142 l 607 501 l 606 547 q 411 515 519 515 q 193 550 266 515 q 119 647 119 585 q 192 742 119 707 q 411 778 265 778 q 562 768 501 778 q 673 733 623 758 q 705 818 692 770 l 878 818 q 771 652 836 717 q 800 532 800 597 l 800 248 q 764 97 800 152 q 652 14 728 41 q 456 -14 576 -14 q 258 14 334 -14 q 147 96 183 41 q 111 248 111 151 l 111 289 q 286 478 111 478 q 391 442 352 478 q 431 345 431 406 q 396 254 431 288 q 304 220 361 221 l 304 207 m 350 349 q 334 390 350 374 q 292 406 317 406 q 251 390 268 406 q 235 349 235 374 q 251 308 235 323 q 292 293 268 293 q 334 308 317 293 q 350 349 350 323 z "},"ฯ":{"ha":772,"x_min":31,"x_max":661,"o":"m 661 764 l 661 139 l 530 0 l 468 0 l 468 581 q 179 458 365 458 q 71 498 112 458 q 31 602 31 538 q 67 693 31 660 q 165 726 104 726 q 262 695 226 726 q 298 610 298 663 q 279 538 298 565 q 402 616 347 554 q 475 764 457 679 l 661 764 m 106 597 q 122 552 106 569 q 165 534 138 534 q 207 552 191 534 q 224 597 224 569 q 207 645 224 628 q 165 661 191 661 q 122 645 138 661 q 106 597 106 628 z "},"ะ":{"ha":721,"x_min":54,"x_max":673,"o":"m 271 419 q 112 457 170 419 q 54 562 54 496 q 92 654 54 621 q 189 688 129 688 q 286 656 249 688 q 322 571 322 624 q 315 529 322 550 q 298 496 307 507 q 439 573 388 516 q 507 726 490 631 l 673 676 q 534 487 640 555 q 271 419 428 419 m 129 562 q 145 519 129 535 q 189 503 161 503 q 231 519 214 503 q 248 562 248 535 q 231 607 248 591 q 189 623 214 623 q 145 607 161 623 q 129 562 129 591 m 271 72 q 112 110 170 72 q 54 215 54 149 q 92 307 54 274 q 189 340 129 340 q 286 309 249 340 q 322 224 322 277 q 315 181 322 203 q 298 149 307 160 q 504 379 471 189 l 673 329 q 534 140 640 208 q 271 72 428 72 m 129 215 q 145 172 129 188 q 189 155 161 155 q 231 172 214 155 q 248 215 248 188 q 231 259 248 243 q 189 275 214 275 q 145 259 161 275 q 129 215 129 243 z "},"ั":{"ha":0,"x_min":-441,"x_max":115,"o":"m -248 819 q -391 858 -340 819 q -441 962 -441 897 q -404 1055 -441 1021 q -307 1088 -367 1088 q -210 1056 -247 1088 q -174 971 -174 1024 q -181 929 -174 950 q -197 896 -189 907 q -94 962 -133 913 q -37 1099 -54 1011 l 115 1076 q -9 889 87 958 q -248 819 -104 819 m -367 962 q -351 919 -367 935 q -307 903 -334 903 q -265 919 -281 903 q -249 962 -249 935 q -265 1006 -249 991 q -307 1022 -281 1022 q -351 1006 -334 1022 q -367 962 -367 991 z "},"า":{"ha":730,"x_min":0,"x_max":619,"o":"m 427 0 l 427 439 q 411 591 427 534 q 362 674 395 648 q 268 700 329 700 q 157 679 216 700 q 40 616 98 657 l 0 684 q 315 778 142 778 q 540 699 461 778 q 619 464 619 620 l 619 139 l 489 0 l 427 0 z "},"ำ":{"ha":730,"x_min":-344,"x_max":619,"o":"m 427 0 l 427 439 q 411 591 427 534 q 362 674 395 648 q 268 700 329 700 q 157 679 216 700 q 40 616 98 657 l 0 684 q 315 778 142 778 q 540 699 461 778 q 619 464 619 620 l 619 139 l 489 0 l 427 0 m -344 946 q -308 1035 -344 1002 q -214 1068 -271 1068 q -116 1036 -153 1068 q -80 946 -80 1004 q -116 856 -80 889 q -214 823 -153 823 q -308 856 -273 823 q -344 946 -344 889 m -269 946 q -212 889 -269 889 q -172 902 -188 889 q -155 946 -155 916 q -172 989 -155 975 q -212 1003 -188 1003 q -253 989 -237 1003 q -269 946 -269 975 z "},"ิ":{"ha":0,"x_min":-722,"x_max":-126,"o":"m -126 818 q -394 858 -260 846 q -722 871 -528 871 q -623 1037 -699 974 q -444 1100 -547 1100 q -238 1028 -321 1100 q -126 818 -155 956 m -432 999 q -579 933 -543 999 q -231 892 -385 933 q -308 970 -254 942 q -432 999 -362 999 z "},"ี":{"ha":0,"x_min":-722,"x_max":-126,"o":"m -126 818 q -394 858 -260 846 q -722 871 -528 871 q -623 1037 -699 974 q -444 1100 -547 1100 q -235 1023 -319 1100 l -235 1147 l -140 1147 l -140 872 l -126 818 m -432 999 q -579 933 -543 999 q -231 892 -385 933 q -308 970 -254 942 q -432 999 -362 999 z "},"ึ":{"ha":0,"x_min":-722,"x_max":-46,"o":"m -126 818 q -394 858 -260 846 q -722 871 -528 871 q -623 1037 -699 974 q -444 1100 -547 1100 q -288 1063 -358 1100 q -245 1117 -275 1097 q -172 1137 -215 1137 q -80 1105 -115 1137 q -46 1015 -46 1073 q -75 940 -46 969 q -153 905 -104 911 q -126 818 -135 863 m -432 999 q -579 933 -543 999 q -231 892 -385 933 q -308 970 -254 942 q -432 999 -362 999 m -224 1015 q -171 968 -224 968 q -134 979 -149 968 q -118 1015 -118 990 q -134 1061 -118 1047 q -171 1075 -149 1075 q -224 1015 -224 1075 z "},"ื":{"ha":0,"x_min":-722,"x_max":-126,"o":"m -126 818 q -394 858 -260 846 q -722 871 -528 871 q -623 1037 -699 974 q -444 1100 -547 1100 q -375 1093 -409 1100 l -375 1147 l -289 1147 l -289 1063 q -227 1017 -252 1042 l -227 1147 l -140 1147 l -140 872 l -126 818 m -432 999 q -579 933 -543 999 q -231 892 -385 933 q -308 970 -254 942 q -432 999 -362 999 z "},"ุ":{"ha":0,"x_min":-325,"x_max":-113,"o":"m -208 -243 l -220 -243 q -296 -217 -268 -243 q -325 -147 -325 -191 q -296 -77 -325 -103 q -220 -50 -268 -50 q -141 -76 -170 -50 q -113 -147 -113 -101 l -113 -353 l -208 -353 l -208 -243 m -253 -147 q -218 -180 -253 -180 q -195 -173 -205 -180 q -184 -147 -184 -165 q -195 -121 -184 -130 q -218 -113 -205 -113 q -253 -147 -253 -113 z "},"ู":{"ha":0,"x_min":-529,"x_max":-114,"o":"m -414 -243 l -424 -243 q -500 -217 -472 -243 q -529 -147 -529 -191 q -500 -77 -529 -103 q -424 -50 -472 -50 q -346 -76 -374 -50 q -317 -147 -317 -101 l -317 -281 l -211 -281 l -211 -69 l -114 -69 l -114 -353 l -414 -353 l -414 -243 m -457 -147 q -422 -180 -457 -180 q -399 -173 -409 -180 q -389 -147 -389 -165 q -399 -121 -389 -130 q -422 -113 -409 -113 q -457 -147 -457 -113 z "},"ฺ":{"ha":0,"x_min":-279,"x_max":-87,"o":"m -279 -165 q -251 -97 -279 -125 q -183 -69 -223 -69 q -116 -97 -144 -69 q -87 -165 -87 -125 q -116 -234 -87 -206 q -183 -262 -144 -262 q -251 -234 -223 -262 q -279 -165 -279 -206 z "},"฿":{"ha":777,"x_min":11,"x_max":734,"o":"m 363 -110 l 363 0 l 11 0 l 11 74 l 47 74 q 104 96 88 74 q 119 164 119 119 l 119 829 q 102 897 119 875 q 47 918 85 918 l 11 918 l 11 991 l 363 991 l 363 1055 l 440 1055 l 440 991 q 641 919 567 986 q 715 745 715 852 q 536 528 715 584 l 536 521 q 734 272 734 472 q 696 134 734 196 q 590 36 658 71 q 440 0 522 0 l 440 -110 l 363 -110 m 543 277 q 520 419 543 370 q 440 478 498 469 l 440 79 q 519 133 494 86 q 543 277 543 180 m 297 79 l 363 79 l 363 479 l 297 479 l 297 79 m 297 558 l 363 558 l 363 913 l 297 913 l 297 558 m 524 739 q 503 855 524 813 q 440 911 483 897 l 440 559 q 524 739 524 574 z "},"เ":{"ha":461,"x_min":111,"x_max":431,"o":"m 304 244 q 398 208 365 241 q 431 119 431 175 q 391 22 431 58 q 286 -14 351 -14 q 111 175 111 -14 l 111 625 l 241 764 l 304 764 l 304 244 m 350 115 q 334 156 350 140 q 292 171 317 171 q 251 156 268 171 q 235 115 235 140 q 251 74 235 90 q 292 58 268 58 q 334 74 317 58 q 350 115 350 90 z "},"แ":{"ha":850,"x_min":111,"x_max":819,"o":"m 304 244 q 398 208 365 241 q 431 119 431 175 q 391 22 431 58 q 286 -14 351 -14 q 111 175 111 -14 l 111 625 l 241 764 l 304 764 l 304 244 m 350 115 q 334 156 350 140 q 292 171 317 171 q 251 156 268 171 q 235 115 235 140 q 251 74 235 90 q 292 58 268 58 q 334 74 317 58 q 350 115 350 90 m 693 244 q 786 208 753 241 q 819 119 819 175 q 779 22 819 58 q 675 -14 739 -14 q 500 175 500 -14 l 500 625 l 631 764 l 693 764 l 693 244 m 739 115 q 723 156 739 140 q 681 171 707 171 q 640 156 656 171 q 624 115 624 140 q 640 74 624 90 q 681 58 656 58 q 723 74 707 58 q 739 115 739 90 z "},"โ":{"ha":631,"x_min":0,"x_max":652,"o":"m 269 935 q 245 1020 269 996 q 165 1043 220 1043 l 0 1043 l 0 1118 q 59 1303 0 1243 q 237 1364 117 1364 q 345 1352 267 1364 q 469 1340 422 1340 q 544 1352 510 1340 q 597 1386 578 1364 l 652 1346 q 444 1198 568 1198 q 339 1211 411 1198 q 239 1222 267 1222 q 120 1199 159 1222 q 75 1118 81 1175 l 271 1118 q 463 939 463 1118 l 463 244 q 556 208 523 241 q 589 119 589 175 q 549 22 589 58 q 444 -14 509 -14 q 269 175 269 -14 l 269 935 m 509 115 q 492 156 509 140 q 450 171 476 171 q 410 156 426 171 q 393 115 393 140 q 410 74 393 90 q 450 58 426 58 q 492 74 476 58 q 509 115 509 90 z "},"ใ":{"ha":643,"x_min":0,"x_max":618,"o":"m 479 244 q 573 208 540 241 q 606 119 606 175 q 566 22 606 58 q 461 -14 526 -14 q 286 175 286 -14 l 286 926 q 424 1178 286 1127 q 381 1288 422 1251 q 265 1325 339 1325 q 141 1288 191 1325 q 83 1187 92 1251 q 167 1225 113 1225 q 250 1192 219 1225 q 281 1104 281 1159 q 245 1014 281 1048 q 150 979 210 979 q 39 1022 79 979 q 0 1145 0 1065 q 79 1332 0 1263 q 297 1400 158 1400 q 522 1335 438 1400 q 618 1158 606 1271 q 510 1086 541 1135 q 479 933 479 1037 l 479 244 m 205 1103 q 190 1145 205 1128 q 149 1161 174 1161 q 107 1145 121 1161 q 93 1103 93 1128 q 108 1060 93 1076 q 149 1044 123 1044 q 190 1060 174 1044 q 205 1103 205 1076 m 525 115 q 509 156 525 140 q 467 171 492 171 q 426 156 443 171 q 410 115 410 140 q 426 74 410 90 q 467 58 443 58 q 509 74 492 58 q 525 115 525 90 z "},"ไ":{"ha":766,"x_min":-20,"x_max":742,"o":"m 422 1243 q 415 1283 422 1273 q 395 1293 408 1293 q 332 1198 363 1293 l 231 890 l 164 890 l 74 1174 q 33 1292 43 1269 q 12 1323 22 1314 q -20 1333 1 1332 l -20 1400 q 73 1393 45 1400 q 119 1369 101 1385 q 152 1317 136 1352 q 201 1171 168 1282 l 224 1097 l 271 1238 q 456 1400 327 1400 q 578 1352 542 1400 q 615 1194 615 1303 l 615 244 q 709 208 675 241 q 742 119 742 175 q 702 22 742 58 q 597 -14 662 -14 q 422 175 422 -14 l 422 1243 m 661 115 q 645 156 661 140 q 603 171 629 171 q 563 156 579 171 q 546 115 546 140 q 563 74 546 90 q 603 58 579 58 q 645 74 629 58 q 661 115 661 90 z "},"ๅ":{"ha":730,"x_min":0,"x_max":619,"o":"m 427 -353 l 427 439 q 411 590 427 534 q 362 673 395 647 q 267 700 329 700 q 148 679 205 700 q 40 616 92 658 l 0 684 q 315 778 142 778 q 540 699 461 778 q 619 464 619 620 l 619 -214 l 489 -353 l 427 -353 z "},"ๆ":{"ha":768,"x_min":40,"x_max":657,"o":"m 245 481 q 230 522 245 507 q 189 538 214 538 q 148 522 161 538 q 134 481 134 507 q 148 438 134 453 q 189 422 163 422 q 230 438 215 422 q 245 481 245 453 m 464 555 q 415 689 464 668 l 330 615 l 237 699 q 162 651 193 687 q 123 566 131 615 q 207 603 153 603 q 290 570 259 603 q 321 482 321 537 q 285 391 321 425 q 191 357 249 357 q 81 402 122 357 q 40 522 40 448 q 100 698 40 626 q 253 778 159 770 l 330 710 l 408 778 q 590 710 522 774 q 657 536 657 646 l 657 -214 l 526 -353 l 464 -353 l 464 555 z "},"็":{"ha":0,"x_min":-583,"x_max":-64,"o":"m -378 1013 q -272 917 -315 944 q -196 889 -230 889 q -143 907 -159 889 l -151 905 l -158 905 q -201 921 -182 905 q -220 970 -220 936 q -200 1019 -220 1000 q -150 1038 -181 1038 q -90 1015 -111 1038 q -69 949 -69 991 q -105 860 -69 891 q -201 828 -140 828 q -288 852 -242 828 q -370 916 -334 876 q -443 833 -404 867 q -542 892 -500 843 q -583 1003 -583 941 q -534 1129 -583 1087 q -392 1171 -485 1171 q -307 1164 -365 1171 q -207 1157 -250 1157 q -104 1186 -132 1157 l -64 1156 q -139 1077 -98 1099 q -229 1054 -180 1054 l -271 1057 q -407 1068 -382 1068 q -484 1053 -458 1068 q -509 1003 -509 1038 q -492 951 -509 977 q -452 914 -475 926 q -413 957 -435 930 q -378 1013 -392 985 m -172 971 q -166 953 -172 960 q -149 946 -159 946 q -126 971 -126 946 q -149 996 -126 996 q -172 971 -172 996 z "},"ํ":{"ha":0,"x_min":-319,"x_max":-56,"o":"m -319 946 q -283 1035 -319 1002 q -189 1068 -247 1068 q -92 1036 -128 1068 q -56 946 -56 1004 q -92 856 -56 889 q -189 823 -128 823 q -284 856 -248 823 q -319 946 -319 889 m -244 946 q -187 889 -244 889 q -147 902 -163 889 q -131 946 -131 916 q -147 989 -131 975 q -187 1003 -163 1003 q -229 989 -213 1003 q -244 946 -244 975 z "},"๎":{"ha":0,"x_min":-342,"x_max":-50,"o":"m -126 965 q -209 955 -184 965 q -233 924 -233 945 q -180 895 -233 895 q -87 911 -129 895 l -87 846 q -195 829 -134 829 q -303 854 -264 829 q -342 922 -342 878 q -240 1000 -342 989 q -292 1067 -292 1026 q -155 1152 -292 1152 q -50 1126 -92 1152 l -79 1072 q -107 1084 -87 1078 q -150 1090 -127 1090 q -180 1081 -172 1090 q -189 1061 -189 1072 q -175 1032 -189 1042 q -126 1018 -160 1021 l -126 965 z "},"๏":{"ha":892,"x_min":41,"x_max":850,"o":"m 41 382 q 95 579 41 487 q 242 726 149 672 q 446 779 335 779 q 651 726 557 779 q 797 581 744 673 q 850 382 850 488 q 796 184 850 277 q 649 39 743 92 q 446 -14 556 -14 q 240 40 334 -14 q 94 185 146 94 q 41 382 41 277 m 122 382 q 165 220 122 294 q 282 103 208 146 q 446 61 357 61 q 609 103 534 61 q 727 220 684 146 q 770 382 770 294 q 727 544 770 469 q 609 662 684 619 q 446 704 534 704 q 282 662 357 704 q 165 544 208 619 q 122 382 122 469 m 294 382 q 339 490 294 446 q 446 534 385 534 q 552 490 507 534 q 597 382 597 446 q 553 275 597 319 q 446 231 508 231 q 339 275 383 231 q 294 382 294 320 z "},"๐":{"ha":922,"x_min":58,"x_max":864,"o":"m 460 62 q 609 130 553 62 q 664 310 664 197 q 609 489 664 422 q 460 555 553 555 q 313 489 368 555 q 258 310 258 422 q 314 129 258 196 q 460 62 369 62 m 460 -14 q 168 75 278 -14 q 58 309 58 163 q 107 478 58 406 q 249 591 157 551 q 460 631 340 631 q 753 544 642 631 q 864 309 864 457 q 753 74 864 162 q 460 -14 642 -14 z "},"๑":{"ha":922,"x_min":58,"x_max":864,"o":"m 390 286 q 406 244 390 260 q 447 228 422 228 q 489 244 475 228 q 503 286 503 260 q 488 329 503 313 q 447 345 473 345 q 406 329 421 345 q 390 286 390 313 m 864 309 q 805 125 864 215 q 654 -9 747 35 l 603 43 q 655 150 633 76 q 676 296 676 224 q 620 488 676 420 q 460 555 564 555 q 304 486 363 555 q 245 298 245 416 q 266 178 245 229 q 320 102 286 128 q 396 77 354 77 q 479 110 449 77 q 513 201 509 142 q 429 164 484 164 q 346 197 377 164 q 315 285 315 230 q 351 375 315 340 q 446 410 387 410 q 567 361 519 410 q 614 236 614 313 q 548 51 614 115 q 357 -14 481 -14 q 139 71 220 -14 q 58 297 58 155 q 109 472 58 395 q 252 589 159 548 q 460 631 345 631 q 753 544 642 631 q 864 309 864 457 z "},"๒":{"ha":922,"x_min":20,"x_max":864,"o":"m 522 309 q 506 350 522 334 q 465 366 490 366 q 424 350 438 366 q 410 309 410 334 q 425 266 410 281 q 465 250 439 250 q 507 266 491 250 q 522 309 522 281 m 72 700 q 56 773 72 738 q 20 814 41 808 l 49 880 q 162 851 113 880 q 238 767 212 822 q 265 633 265 711 l 265 239 q 406 75 265 75 l 543 75 q 642 114 614 75 q 671 239 671 153 l 671 408 q 654 496 671 462 q 616 542 638 530 l 557 479 l 472 551 q 422 497 439 534 q 400 393 405 460 q 484 431 429 431 q 566 397 534 431 q 597 310 597 363 q 562 219 597 253 q 467 184 526 184 q 358 232 399 184 q 317 359 317 279 q 358 534 317 467 q 488 631 399 601 l 557 562 l 627 631 q 799 569 733 627 q 864 419 864 511 l 864 239 q 812 57 864 113 q 644 0 760 0 l 326 0 q 131 63 190 0 q 72 275 72 126 l 72 700 z "},"๓":{"ha":922,"x_min":58,"x_max":864,"o":"m 864 309 q 805 125 864 215 q 654 -9 747 35 l 603 43 q 655 154 634 77 q 676 310 676 231 q 654 487 676 425 q 596 550 632 550 q 558 527 574 550 q 531 457 542 503 q 515 317 521 412 l 410 317 q 393 456 405 409 q 365 527 382 504 q 323 550 347 550 q 267 486 288 550 q 245 310 245 422 q 273 170 245 223 q 314 213 287 195 q 379 231 340 231 q 476 199 443 231 q 510 109 510 167 q 469 20 510 53 q 357 -14 427 -14 q 140 75 222 -14 q 58 309 58 163 q 123 541 58 451 q 294 631 188 631 q 461 467 433 631 q 516 586 474 542 q 628 631 557 631 q 800 541 735 631 q 864 309 864 452 m 435 109 q 419 150 435 134 q 378 165 404 165 q 337 150 354 165 q 321 109 321 134 q 337 66 321 81 q 378 52 354 52 q 419 66 404 52 q 435 109 435 81 z "},"๔":{"ha":922,"x_min":53,"x_max":875,"o":"m 835 -14 q 676 28 778 28 q 534 7 628 28 q 387 -14 439 -14 q 142 57 232 -14 q 53 252 53 127 q 88 383 53 328 q 203 487 123 439 q 446 597 282 536 q 609 674 547 634 q 701 763 671 715 q 741 889 732 812 l 802 889 q 827 828 821 849 q 833 790 833 808 q 804 695 833 732 q 706 623 775 659 q 514 545 637 587 q 309 427 372 494 q 245 254 245 360 q 288 112 245 163 q 406 61 331 61 q 492 75 434 61 q 581 89 553 88 q 479 162 522 105 q 436 285 436 218 q 480 399 436 355 q 593 443 524 443 q 688 408 653 443 q 724 318 724 374 q 693 230 724 262 q 610 197 662 197 q 543 220 574 197 q 600 162 562 185 q 710 125 637 140 q 875 43 821 101 l 835 -14 m 648 319 q 633 362 648 347 q 591 378 618 378 q 551 362 566 378 q 536 319 536 347 q 550 277 536 294 q 591 261 564 261 q 633 277 617 261 q 648 319 648 294 z "},"๕":{"ha":922,"x_min":53,"x_max":875,"o":"m 282 650 q 319 740 282 707 q 412 772 355 772 q 509 740 472 772 q 546 650 546 707 l 545 639 q 685 742 640 686 q 741 889 730 798 l 802 889 q 827 828 821 849 q 833 790 833 808 q 804 695 833 732 q 706 623 775 659 q 514 545 637 587 q 309 427 372 494 q 245 254 245 360 q 284 108 245 155 q 406 61 323 61 q 492 75 434 61 q 581 89 553 88 q 479 162 522 105 q 436 285 436 218 q 480 399 436 355 q 593 443 524 443 q 688 408 653 443 q 724 318 724 374 q 693 230 724 262 q 610 197 662 197 q 543 220 574 197 q 600 162 562 185 q 710 125 637 140 q 875 43 821 101 l 835 -14 q 676 28 778 28 q 534 7 628 28 q 387 -14 439 -14 q 142 57 232 -14 q 53 252 53 127 q 114 416 53 349 q 329 550 176 484 q 282 650 282 583 m 648 319 q 633 362 648 347 q 591 378 618 378 q 551 362 566 378 q 536 319 536 347 q 550 277 536 294 q 591 261 564 261 q 633 277 617 261 q 648 319 648 294 m 357 650 q 373 607 357 621 q 414 593 389 593 q 454 607 437 593 q 471 650 471 621 q 454 692 471 678 q 414 707 437 707 q 373 692 389 707 q 357 650 357 678 z "},"๖":{"ha":922,"x_min":26,"x_max":836,"o":"m 454 631 q 653 591 566 631 q 788 478 741 551 q 836 309 836 406 q 739 75 836 163 q 481 -14 642 -14 q 301 18 378 -14 q 184 106 224 49 q 144 237 144 163 q 189 355 144 309 q 301 401 234 401 q 396 368 359 401 q 432 277 432 334 q 401 188 432 220 q 318 155 370 155 q 249 178 279 155 q 322 93 272 123 q 441 62 372 62 q 584 130 531 62 q 636 310 636 197 q 578 492 636 429 q 411 555 521 555 q 289 532 348 555 q 183 465 229 508 q 116 616 163 519 q 26 782 69 713 l 195 840 q 233 656 214 782 l 244 591 q 454 631 341 631 m 357 278 q 341 321 357 305 q 300 336 326 336 q 259 321 274 336 q 244 278 244 305 q 258 236 244 252 q 300 220 273 220 q 341 236 326 220 q 357 278 357 252 z "},"๗":{"ha":922,"x_min":31,"x_max":920,"o":"m 326 109 q 311 150 326 134 q 269 165 296 165 q 229 150 245 165 q 212 109 212 134 q 229 66 212 81 q 269 52 245 52 q 311 66 296 52 q 326 109 326 81 m 460 0 l 460 310 q 455 440 460 393 q 441 509 450 488 q 411 529 432 529 q 375 479 388 529 q 357 317 363 429 l 293 317 q 274 482 287 435 q 239 529 262 529 q 191 339 191 529 q 197 191 191 227 q 230 219 207 208 q 282 231 254 231 q 369 199 337 231 q 401 109 401 167 q 363 20 401 54 q 262 -14 325 -14 q 87 71 144 -14 q 31 334 31 155 q 76 555 31 480 q 208 631 121 631 q 284 596 255 631 q 323 501 313 562 q 362 596 333 562 q 452 631 392 631 q 577 554 536 631 q 619 309 619 477 l 619 75 q 693 239 693 75 l 693 633 q 744 817 693 753 q 890 880 795 880 l 920 814 q 883 779 899 808 q 867 700 867 750 l 867 275 q 817 60 867 121 q 643 0 768 0 l 460 0 z "},"๘":{"ha":922,"x_min":53,"x_max":869,"o":"m 245 254 q 266 152 245 190 q 329 97 286 113 q 376 152 356 120 q 418 244 396 184 q 469 218 444 235 q 551 154 495 201 q 690 90 627 90 q 753 115 730 90 q 786 205 777 140 q 703 168 757 168 q 620 201 650 168 q 589 289 589 234 q 624 379 589 345 q 720 414 660 414 q 831 363 793 414 q 869 222 869 313 q 817 55 869 117 q 679 -7 765 -7 q 606 8 638 -7 q 547 43 574 22 q 498 85 521 63 q 452 122 475 107 q 370 -14 415 32 q 139 58 225 -14 q 53 252 53 130 q 88 383 53 328 q 203 487 123 439 q 446 597 282 536 q 609 674 547 634 q 701 763 671 715 q 741 889 732 812 l 802 889 q 827 828 821 849 q 833 790 833 808 q 804 695 833 732 q 706 623 775 659 q 514 545 637 587 q 309 427 372 494 q 245 254 245 360 m 664 290 q 680 249 664 264 q 721 233 696 233 q 762 249 748 233 q 777 290 777 264 q 762 333 777 317 q 721 349 747 349 q 680 333 695 349 q 664 290 664 317 z "},"๙":{"ha":922,"x_min":45,"x_max":924,"o":"m 793 0 l 597 0 l 478 297 q 382 499 416 448 q 311 550 348 550 q 252 497 271 550 q 232 335 232 445 q 260 170 232 228 q 298 214 268 197 q 366 231 329 231 q 463 199 429 231 q 496 109 496 167 q 455 20 496 53 q 343 -14 414 -14 q 126 75 208 -14 q 45 309 45 163 q 115 542 45 454 q 310 631 185 631 q 481 581 406 631 q 581 686 560 648 q 714 572 652 656 q 742 818 742 659 l 924 790 q 853 591 913 682 q 694 440 793 500 q 599 558 637 534 q 550 517 591 547 q 681 283 615 443 l 793 0 m 421 109 q 406 150 421 134 q 364 165 390 165 q 323 150 340 165 q 307 109 307 134 q 323 66 307 81 q 364 52 340 52 q 406 66 390 52 q 421 109 421 81 z "},"๚":{"ha":1064,"x_min":31,"x_max":953,"o":"m 661 764 l 661 139 l 530 0 l 468 0 l 468 581 q 179 458 365 458 q 71 498 112 458 q 31 602 31 538 q 67 693 31 660 q 165 726 104 726 q 262 695 226 726 q 298 610 298 663 q 279 538 298 565 q 402 616 347 554 q 475 764 457 679 l 661 764 m 106 597 q 122 552 106 569 q 165 534 138 534 q 207 552 191 534 q 224 597 224 569 q 207 645 224 628 q 165 661 191 661 q 122 645 138 661 q 106 597 106 628 m 953 764 l 953 139 l 822 0 l 760 0 l 760 764 l 953 764 z "},"๛":{"ha":1255,"x_min":45,"x_max":1227,"o":"m 1227 301 l 1059 264 l 1013 114 l 964 114 l 903 296 l 829 66 l 781 66 l 696 326 q 575 77 661 167 q 371 -14 489 -14 q 204 25 279 -14 q 87 136 130 64 q 45 301 45 208 q 120 528 45 447 q 329 610 196 610 q 509 545 446 610 q 572 367 572 481 q 531 241 572 288 q 418 193 490 193 q 323 228 358 193 q 288 318 288 262 q 318 406 288 374 q 401 439 349 439 q 485 401 456 439 q 447 496 481 460 q 363 533 412 533 q 261 478 291 533 q 232 300 232 422 q 270 123 232 186 q 376 61 309 61 q 556 156 489 61 q 667 486 623 250 l 717 486 l 806 211 l 879 441 l 928 441 l 989 257 l 1026 390 l 1227 349 l 1227 301 m 363 317 q 378 274 363 290 q 419 258 393 258 q 460 274 446 258 q 475 317 475 290 q 461 359 475 342 q 419 375 447 375 q 378 359 394 375 q 363 317 363 342 z "},"่":{"ha":0,"x_min":-310,"x_max":-122,"o":"m -310 1450 l -122 1450 l -164 1204 l -268 1204 l -310 1450 z "},"้":{"ha":0,"x_min":-511,"x_max":-4,"o":"m -511 1396 q -480 1474 -511 1444 q -396 1503 -449 1503 q -310 1471 -342 1503 q -278 1386 -278 1438 q -331 1272 -278 1316 q -221 1343 -267 1282 q -157 1503 -176 1404 l -4 1480 q -148 1270 -37 1345 q -427 1196 -258 1196 l -446 1261 q -397 1291 -422 1269 q -481 1320 -450 1294 q -511 1396 -511 1347 m -439 1396 q -426 1362 -439 1373 q -395 1352 -414 1352 q -363 1362 -377 1352 q -350 1396 -350 1373 q -363 1430 -350 1419 q -395 1440 -377 1440 q -426 1430 -414 1440 q -439 1396 -439 1419 z "},"๊":{"ha":0,"x_min":-627,"x_max":3,"o":"m -469 1297 q -481 1328 -469 1317 q -513 1339 -493 1339 q -554 1297 -554 1339 q -543 1266 -554 1278 q -513 1254 -532 1254 q -481 1266 -493 1254 q -469 1297 -469 1278 m -347 1204 q -309 1340 -309 1266 q -350 1432 -309 1412 l -411 1382 l -479 1439 q -534 1412 -515 1430 q -559 1362 -554 1394 q -498 1390 -539 1390 q -435 1365 -460 1390 q -411 1299 -411 1341 q -439 1230 -411 1255 q -511 1204 -467 1204 q -595 1239 -564 1204 q -627 1329 -627 1274 q -583 1451 -627 1404 q -464 1506 -540 1498 l -407 1457 l -353 1506 q -265 1453 -299 1494 q -231 1360 -231 1412 q -233 1313 -231 1328 q -243 1280 -235 1298 q -184 1351 -208 1292 q -150 1506 -160 1411 l 3 1483 q -115 1277 -24 1350 q -347 1204 -206 1204 z "},"๋":{"ha":0,"x_min":-351,"x_max":-78,"o":"m -351 1268 l -351 1375 l -268 1375 l -268 1463 l -161 1463 l -161 1375 l -78 1375 l -78 1268 l -161 1268 l -161 1179 l -268 1179 l -268 1268 l -351 1268 z "},"์":{"ha":0,"x_min":-550,"x_max":3,"o":"m -157 1550 l 3 1550 q -31 1452 0 1486 q -130 1400 -62 1417 q -313 1379 -197 1383 q -297 1313 -297 1352 q -332 1228 -297 1259 q -425 1196 -368 1196 q -516 1228 -482 1196 q -550 1313 -550 1259 q -399 1442 -550 1431 q -215 1477 -268 1452 q -157 1550 -161 1502 m -477 1313 q -462 1272 -477 1284 q -423 1259 -446 1259 q -385 1272 -401 1259 q -369 1313 -369 1284 q -385 1354 -369 1341 q -423 1367 -401 1367 q -462 1354 -446 1367 q -477 1313 -477 1341 z "},"​":{"ha":0,"x_min":0,"x_max":0,"o":""},"◌":{"ha":836,"x_min":69,"x_max":766,"o":"m 676 623 q 637 583 676 583 q 597 623 597 583 q 637 663 597 663 q 676 623 676 663 m 575 689 q 538 650 575 650 q 496 689 496 650 q 538 729 496 729 q 575 689 575 729 m 743 522 q 703 482 743 482 q 664 522 664 482 q 704 561 664 561 q 743 522 743 561 m 766 404 q 729 366 766 366 q 689 404 689 366 q 729 443 689 443 q 766 404 766 443 m 457 714 q 418 673 457 673 q 378 714 378 673 q 418 753 378 753 q 457 714 457 753 m 340 689 q 300 650 340 650 q 261 689 261 650 q 300 729 261 729 q 340 689 340 729 m 743 286 q 703 248 743 248 q 664 286 664 248 q 703 326 664 326 q 743 286 743 326 m 240 623 q 200 583 240 583 q 161 621 161 583 q 200 663 161 663 q 240 623 240 663 m 676 184 q 637 146 676 146 q 597 184 597 146 q 637 225 597 225 q 676 184 676 225 m 575 118 q 538 81 575 81 q 496 118 496 81 q 538 158 496 158 q 575 118 575 158 m 172 522 q 135 482 172 482 q 93 522 93 482 q 134 561 93 561 q 172 522 172 561 m 149 404 q 110 366 149 366 q 69 404 69 366 q 110 443 69 443 q 149 404 149 443 m 457 96 q 418 56 457 56 q 378 96 378 56 q 418 135 378 135 q 457 96 457 135 m 172 286 q 134 248 172 248 q 93 286 93 248 q 134 326 93 326 q 172 286 172 326 m 340 121 q 300 81 340 81 q 261 118 261 81 q 300 158 261 158 q 340 121 340 158 m 240 184 q 200 146 240 146 q 161 184 161 146 q 200 225 161 225 q 240 184 240 225 z "}}}
